<svg width="360" height="360" viewBox="0 0 360 360" fill="none" xmlns="http://www.w3.org/2000/svg">
<rect width="360" height="360" rx="180" fill="white"/>
<path d="M305.195 235.017C304.537 232.537 303.472 230.183 302.044 228.051C302.349 226.929 302.583 225.788 302.739 224.635C303.753 217.321 301.217 210.626 296.44 205.445C293.851 202.616 291.077 200.747 288.138 199.6C290.067 191.348 291.043 182.903 291.047 174.428C291.047 170.557 290.828 166.766 290.461 163.031C290.27 161.166 290.039 159.305 289.767 157.45C288.926 151.976 287.678 146.572 286.033 141.283C284.955 137.808 283.708 134.388 282.296 131.035C280.179 126.068 277.709 121.261 274.902 116.65C273.062 113.581 271.057 110.614 268.897 107.762C267.839 106.322 266.735 104.915 265.588 103.545C262.188 99.413 258.493 95.5331 254.533 91.9353C253.217 90.7257 251.864 89.5576 250.476 88.4326C249.109 87.2925 247.711 86.189 246.285 85.1234C243.416 82.9874 240.45 80.9835 237.398 79.118C220.532 68.8744 200.753 63 179.614 63C118.065 63 68.1808 112.886 68.1808 174.432C68.1784 183.014 69.1722 191.566 71.1425 199.917C68.4991 201.065 65.9657 202.854 63.6159 205.443C58.8393 210.621 56.3022 217.292 57.3168 224.606C57.471 225.767 57.7023 226.918 58.0107 228.048C56.5838 230.182 55.5198 232.536 54.8618 235.017C53.3932 240.599 53.8766 245.633 55.7429 250.043C53.7138 255.808 54.2205 261.946 56.8628 267.284C58.7842 271.182 61.5342 274.197 64.9242 276.892C68.9543 280.096 73.999 282.818 80.0839 285.43C87.3438 288.526 96.2056 291.435 100.236 292.502C110.646 295.197 120.627 296.905 130.744 296.989C145.157 297.122 157.569 293.733 166.455 285.06C170.821 285.595 175.216 285.862 179.614 285.86C184.261 285.85 188.903 285.558 193.514 284.985C202.38 293.714 214.84 297.133 229.306 296.996C239.421 296.915 249.402 295.207 259.785 292.508C263.843 291.441 272.701 288.532 279.964 285.436C286.049 282.82 291.094 280.098 295.151 276.899C298.515 274.203 301.263 271.189 303.185 267.291C305.855 261.953 306.334 255.814 304.333 250.049C306.181 245.639 306.662 240.594 305.195 235.017ZM294.866 249.67C296.911 253.551 297.042 257.936 295.238 262.02C292.501 268.209 285.704 273.085 272.502 278.319C264.293 281.574 256.776 283.656 256.71 283.675C245.852 286.491 236.032 287.921 227.531 287.921C213.455 287.921 202.98 284.037 196.337 276.366C185.103 278.28 173.633 278.345 162.379 276.559C155.727 284.103 145.312 287.921 131.354 287.921C122.852 287.921 113.033 286.491 102.174 283.675C102.108 283.656 94.5938 281.574 86.3818 278.319C73.1815 273.085 66.3818 268.213 63.6465 262.02C61.8426 257.936 61.9735 253.551 64.0186 249.67C64.207 249.309 64.4102 248.958 64.6268 248.618C63.4012 246.777 62.579 244.697 62.2146 242.516C61.8501 240.335 61.9514 238.101 62.512 235.962C63.3246 232.874 65.0025 230.306 67.2813 228.462C66.1836 226.659 65.4633 224.651 65.1641 222.561C64.5081 218.015 66.0171 213.477 69.4108 209.777C72.0543 206.897 75.7907 205.312 79.9273 205.312H80.0374C76.9185 195.314 75.3372 184.901 75.3477 174.428C75.3477 117.31 121.653 71.0015 178.779 71.0015C235.905 71.0015 282.21 117.306 282.21 174.428C282.219 184.929 280.626 195.37 277.487 205.39C277.986 205.341 278.476 205.317 278.957 205.316C283.094 205.316 286.831 206.9 289.472 209.78C292.866 213.477 294.376 218.019 293.719 222.564C293.42 224.654 292.7 226.662 291.603 228.466C293.882 230.31 295.561 232.878 296.372 235.966C296.933 238.105 297.034 240.339 296.67 242.52C296.305 244.701 295.483 246.78 294.257 248.621C294.474 248.958 294.68 249.309 294.866 249.67Z" fill="white"/>
<path d="M294.257 248.621C295.483 246.781 296.306 244.701 296.67 242.52C297.035 240.339 296.933 238.105 296.372 235.966C295.56 232.878 293.88 230.31 291.603 228.466C292.701 226.662 293.42 224.655 293.719 222.564C294.376 218.019 292.867 213.481 289.472 209.78C286.831 206.9 283.094 205.316 278.957 205.316C278.476 205.316 277.986 205.341 277.487 205.39C280.623 195.37 282.212 184.93 282.201 174.431C282.201 117.312 235.896 71.0039 178.776 71.0039C121.654 71.0039 75.344 117.307 75.344 174.431C75.3337 184.903 76.915 195.317 80.0337 205.314H79.9236C75.787 205.314 72.0506 206.898 69.4084 209.778C66.0146 213.475 64.5044 218.018 65.1616 222.562C65.4611 224.652 66.1813 226.66 67.2789 228.465C65.0001 230.308 63.321 232.875 62.5083 235.963C61.9481 238.103 61.8472 240.337 62.2121 242.519C62.577 244.7 63.3995 246.78 64.6256 248.621C64.4077 248.961 64.207 249.313 64.0173 249.674C61.9735 253.555 61.8413 257.94 63.6465 262.024C66.383 268.213 73.1802 273.088 86.3818 278.323C94.5901 281.578 102.108 283.66 102.174 283.678C113.032 286.494 122.852 287.925 131.353 287.925C145.312 287.925 155.727 284.107 162.379 276.563C173.633 278.348 185.103 278.283 196.337 276.369C202.98 284.04 213.455 287.925 227.531 287.925C236.032 287.925 245.852 286.494 256.709 283.678C256.776 283.66 264.29 281.578 272.502 278.323C285.704 273.088 292.502 268.213 295.238 262.024C297.042 257.94 296.911 253.555 294.866 249.674C294.68 249.31 294.474 248.958 294.257 248.621ZM157.619 264.753C157.047 265.754 156.433 266.731 155.781 267.683C154.061 270.2 151.8 272.124 149.175 273.553C144.157 276.29 137.805 277.246 131.353 277.246C121.16 277.246 110.711 274.86 104.854 273.342C104.566 273.267 68.9543 263.208 73.4629 254.646C74.2217 253.206 75.47 252.631 77.0427 252.631C83.3907 252.631 94.9499 262.084 99.9163 262.084C101.028 262.084 101.811 261.611 102.13 260.458C104.247 252.866 69.9517 249.674 72.84 238.679C73.3491 236.733 74.7321 235.942 76.6755 235.942C85.0686 235.941 103.906 250.702 107.846 250.702C108.148 250.702 108.364 250.612 108.482 250.426C108.499 250.398 108.516 250.371 108.532 250.342C110.381 247.288 109.32 245.068 96.6523 237.309L95.4358 236.569C81.495 228.132 71.7104 223.054 77.274 216.996C77.9153 216.297 78.8234 215.988 79.926 215.988C81.2331 215.988 82.8143 216.424 84.5583 217.159C91.9209 220.264 102.125 228.731 106.388 232.424C107.059 233.007 107.725 233.594 108.386 234.187C108.386 234.187 113.784 239.8 117.046 239.8C117.798 239.8 118.435 239.504 118.867 238.772C121.182 234.87 97.3731 216.828 96.0306 209.384C95.12 204.34 96.6694 201.785 99.5332 201.785C100.895 201.785 102.556 202.365 104.392 203.529C110.083 207.14 121.07 226.022 125.093 233.367C126.442 235.828 128.744 236.869 130.818 236.869C134.934 236.869 138.152 232.777 131.195 227.579C120.74 219.756 124.409 206.969 129.399 206.182C129.612 206.148 129.827 206.131 130.041 206.131C134.579 206.131 136.58 213.95 136.58 213.95C136.58 213.95 142.447 228.682 152.526 238.753C161.67 247.894 162.948 255.395 157.619 264.753ZM190.209 266.478L189.686 266.541L188.795 266.642C188.327 266.691 187.857 266.738 187.385 266.781L186.927 266.822L186.507 266.858L185.912 266.905L185.255 266.953L184.599 266.996L184.453 267.006C184.282 267.016 184.11 267.027 183.937 267.035L183.718 267.047C183.514 267.058 183.311 267.068 183.106 267.077L182.395 267.107L181.75 267.129L181.319 267.142H181.1C180.965 267.142 180.832 267.149 180.697 267.15H180.484C180.35 267.15 180.216 267.15 180.082 267.156L179.533 267.164H178.768C178.167 267.164 177.568 267.158 176.971 267.145L176.486 267.134C176.348 267.134 176.209 267.128 176.073 267.123L175.559 267.109L174.922 267.084L174.347 267.058L174.199 267.052L173.652 267.024C173.499 267.016 173.348 267.008 173.196 266.997L172.843 266.976C172.398 266.948 171.954 266.917 171.51 266.883L171.045 266.845C170.849 266.831 170.653 266.812 170.458 266.795C170.23 266.776 170.001 266.754 169.772 266.732C169.389 266.696 169.005 266.657 168.623 266.615H168.604C174.197 254.138 171.369 242.485 160.067 231.193C152.654 223.79 147.723 212.858 146.7 210.458C144.629 203.354 139.149 195.456 130.047 195.456C129.277 195.456 128.509 195.518 127.749 195.637C123.762 196.265 120.276 198.56 117.789 202.014C115.102 198.671 112.49 196.014 110.128 194.514C106.567 192.256 103.013 191.111 99.5503 191.111C95.229 191.111 91.3665 192.885 88.6741 196.104L88.6055 196.186C88.5541 195.974 88.5052 195.762 88.455 195.549L88.4489 195.521C87.9364 193.33 87.5061 191.121 87.1589 188.898C87.1589 188.883 87.1589 188.868 87.1516 188.854C87.1247 188.686 87.1002 188.517 87.0745 188.35C86.9986 187.853 86.9276 187.355 86.8628 186.856C86.8334 186.63 86.8016 186.404 86.7734 186.177L86.6902 185.498C86.6633 185.272 86.6413 185.066 86.6168 184.851L86.6094 184.797C86.5115 183.916 86.4259 183.034 86.3524 182.151L86.3255 181.812L86.2827 181.234C86.2704 181.076 86.2582 180.917 86.2496 180.758C86.2496 180.72 86.2435 180.683 86.2423 180.648C86.2112 180.204 86.1847 179.76 86.1627 179.316C86.1505 179.085 86.1383 178.855 86.1285 178.622L86.104 178.015L86.0979 177.832L86.0783 177.273L86.0661 176.796C86.0661 176.607 86.0563 176.417 86.0538 176.227C86.0501 176.038 86.0453 175.83 86.044 175.629C86.0416 175.428 86.044 175.23 86.0379 175.03C86.033 174.83 86.0379 174.63 86.0379 174.431C86.0379 123.209 127.563 81.6831 178.79 81.6831C230.016 81.6831 271.54 123.208 271.54 174.431V175.629C271.54 175.828 271.534 176.029 271.531 176.227C271.531 176.393 271.523 176.555 271.518 176.723C271.518 176.87 271.512 177.018 271.507 177.16C271.507 177.347 271.496 177.534 271.49 177.722V177.736L271.465 178.386C271.456 178.576 271.449 178.767 271.439 178.957L271.433 179.091L271.4 179.698C271.327 180.999 271.229 182.298 271.105 183.595V183.611C271.084 183.824 271.063 184.037 271.04 184.25L270.985 184.753L270.876 185.737L270.814 186.235L270.736 186.821C270.708 187.034 270.68 187.248 270.648 187.46C270.616 187.698 270.581 187.936 270.545 188.173L270.461 188.735L270.361 189.371C270.326 189.583 270.29 189.794 270.251 190.004C270.21 190.216 270.178 190.426 270.142 190.637C270.068 191.058 269.991 191.479 269.91 191.899C269.787 192.526 269.661 193.153 269.531 193.78L269.396 194.4C269.352 194.607 269.305 194.815 269.258 195.022C266.648 192.485 263.19 191.103 259.378 191.103C255.918 191.103 252.36 192.247 248.8 194.505C246.438 196.006 243.828 198.664 241.139 202.005C238.649 198.551 235.163 196.257 231.178 195.629C230.418 195.509 229.649 195.448 228.88 195.448C219.776 195.448 214.299 203.345 212.227 210.45C211.199 212.85 206.267 223.781 198.848 231.195C187.553 242.452 184.704 254.053 190.209 266.478ZM285.963 241.501L285.927 241.61C285.834 241.856 285.726 242.095 285.605 242.328C285.513 242.5 285.414 242.666 285.306 242.828C285.102 243.132 284.878 243.424 284.634 243.698C284.578 243.761 284.524 243.825 284.461 243.887C284.373 243.982 284.283 244.074 284.191 244.165C282.544 245.798 280.033 247.23 277.193 248.543C276.872 248.689 276.545 248.834 276.216 248.981L275.888 249.127C275.668 249.223 275.449 249.319 275.219 249.413C275 249.509 274.773 249.604 274.545 249.697L273.862 249.979C272.265 250.636 270.629 251.262 269.033 251.88L268.35 252.146L267.676 252.41C267.226 252.585 266.783 252.76 266.348 252.935L265.698 253.197L265.059 253.458L264.746 253.59C264.536 253.677 264.332 253.764 264.128 253.851C259.432 255.866 256.053 257.916 256.763 260.459C256.782 260.532 256.804 260.6 256.829 260.668C256.892 260.856 256.979 261.033 257.088 261.201C257.152 261.3 257.225 261.394 257.307 261.48C258.142 262.348 259.661 262.211 261.576 261.522C261.845 261.423 262.113 261.32 262.379 261.212L262.545 261.144C262.983 260.958 263.447 260.75 263.921 260.524C264.04 260.468 264.159 260.414 264.279 260.352C266.622 259.206 269.276 257.664 271.91 256.26C272.964 255.692 274.032 255.151 275.114 254.639C277.608 253.465 279.953 252.633 281.838 252.633C282.723 252.633 283.504 252.814 284.155 253.23L284.264 253.302C284.672 253.59 285.015 253.96 285.271 254.388C285.321 254.47 285.37 254.557 285.418 254.646C286.349 256.415 285.569 258.246 283.745 260.041C281.993 261.765 279.269 263.455 276.173 265.02C275.943 265.136 275.713 265.252 275.479 265.366C266.263 269.892 254.195 273.3 254.027 273.343C250.811 274.176 246.212 275.27 241.03 276.089L240.264 276.209L240.138 276.227C239.558 276.316 238.977 276.398 238.394 276.473C237.803 276.553 237.206 276.625 236.605 276.693L236.495 276.705C234.316 276.956 232.129 277.122 229.937 277.202H229.905C229.112 277.23 228.321 277.244 227.527 277.244H226.613C225.405 277.228 224.197 277.174 222.992 277.08C222.964 277.08 222.933 277.08 222.905 277.073C222.026 277.003 221.149 276.909 220.275 276.79C219.983 276.751 219.691 276.707 219.4 276.659C219.104 276.612 218.808 276.563 218.513 276.511L218.11 276.436L218.079 276.429C217.655 276.349 217.232 276.259 216.812 276.161C216.567 276.106 216.323 276.052 216.082 275.986L215.936 275.95C215.817 275.92 215.7 275.888 215.582 275.857L215.517 275.839L215.14 275.729C215.003 275.691 214.866 275.65 214.729 275.609L214.681 275.596L214.325 275.487C214.19 275.445 214.055 275.401 213.922 275.357L213.594 275.248L213.353 275.164C213.12 275.082 212.889 274.997 212.66 274.909L212.442 274.824L212.262 274.753C211.915 274.613 211.57 274.467 211.228 274.315L211.002 274.204L210.964 274.187C210.883 274.149 210.804 274.111 210.723 274.078C210.565 274.002 210.409 273.924 210.253 273.845L210.205 273.821L209.98 273.703C209.58 273.494 209.188 273.271 208.804 273.034L208.593 272.905C208.488 272.84 208.383 272.773 208.28 272.704L208.006 272.523L207.711 272.32L207.535 272.194C207.349 272.061 207.166 271.924 206.988 271.784L206.703 271.565C206.589 271.473 206.476 271.38 206.365 271.286C206.271 271.208 206.179 271.128 206.087 271.047L206.08 271.041C205.98 270.954 205.884 270.867 205.787 270.778C205.691 270.691 205.597 270.603 205.503 270.513L205.492 270.502C205.395 270.41 205.299 270.315 205.205 270.218C205.11 270.123 205.014 270.027 204.922 269.93C204.83 269.833 204.736 269.734 204.645 269.632C204.555 269.532 204.472 269.44 204.386 269.341L204.358 269.308C204.274 269.212 204.192 269.115 204.112 269.017C203.936 268.807 203.766 268.593 203.603 268.374C203.437 268.154 203.276 267.929 203.118 267.7L202.967 267.475C202.767 267.181 202.571 266.885 202.381 266.584C202.239 266.367 202.101 266.149 201.966 265.928C201.879 265.789 201.796 265.65 201.713 265.513L201.679 265.456C201.599 265.322 201.521 265.19 201.445 265.056C201.401 264.985 201.359 264.912 201.32 264.837C201.28 264.761 201.233 264.684 201.19 264.607L201.121 264.486L201.078 264.408C200.996 264.261 200.915 264.113 200.837 263.963C200.8 263.897 200.764 263.831 200.727 263.768L200.618 263.556L200.507 263.347C200.232 262.796 199.971 262.238 199.727 261.672L199.64 261.465C199.583 261.327 199.531 261.19 199.475 261.054C199.448 260.988 199.421 260.923 199.397 260.857C198.993 259.809 198.675 258.728 198.448 257.628C198.434 257.56 198.421 257.493 198.41 257.428C198.346 257.101 198.295 256.772 198.254 256.442C198.245 256.377 198.237 256.312 198.23 256.247L198.209 256.049C198.182 255.789 198.162 255.529 198.149 255.268C198.149 255.202 198.143 255.136 198.141 255.072C198.135 254.942 198.132 254.813 198.131 254.683C198.062 249.453 200.708 244.426 206.366 238.771C216.444 228.702 222.311 213.968 222.311 213.968C222.311 213.968 222.469 213.35 222.797 212.46C222.843 212.337 222.89 212.21 222.944 212.076C223.135 211.578 223.35 211.088 223.589 210.611L223.637 210.519C223.84 210.113 224.063 209.717 224.303 209.331C224.359 209.242 224.413 209.154 224.475 209.064C224.655 208.799 224.845 208.539 225.044 208.288C225.153 208.152 225.272 208.018 225.391 207.887C225.438 207.836 225.485 207.784 225.535 207.735C226.119 207.132 226.786 206.64 227.541 206.378L227.636 206.346C227.7 206.325 227.764 206.306 227.829 206.287C227.903 206.268 227.978 206.251 228.055 206.235L228.09 206.227C228.25 206.196 228.411 206.175 228.574 206.164H228.587C228.672 206.164 228.757 206.155 228.844 206.155C228.953 206.155 229.055 206.155 229.161 206.166C229.271 206.176 229.38 206.188 229.491 206.205C230.399 206.35 231.263 206.891 232.007 207.725C232.289 208.044 232.544 208.386 232.767 208.748C232.914 208.983 233.052 209.232 233.183 209.494C233.235 209.603 233.286 209.703 233.335 209.811C233.462 210.087 233.577 210.369 233.677 210.656C233.916 211.33 234.096 212.022 234.215 212.727C234.317 213.345 234.379 213.969 234.398 214.595C234.408 214.929 234.408 215.268 234.398 215.609C234.332 217.198 234.006 218.766 233.435 220.25C233.384 220.386 233.326 220.523 233.271 220.66C233.158 220.936 233.035 221.208 232.901 221.474C232.802 221.676 232.698 221.879 232.586 222.081C232.512 222.216 232.435 222.35 232.358 222.485C232.161 222.82 231.948 223.153 231.719 223.485L231.581 223.683C231.04 224.437 230.438 225.144 229.779 225.798C229.131 226.447 228.436 227.049 227.7 227.597C226.963 228.143 226.272 228.747 225.633 229.404C223.794 231.334 223.365 233.038 223.779 234.329C223.845 234.532 223.932 234.729 224.037 234.915C224.161 235.128 224.308 235.324 224.474 235.503L224.539 235.57L224.605 235.636C224.671 235.7 224.741 235.762 224.815 235.824L224.889 235.882C225.066 236.019 225.255 236.142 225.452 236.249C225.509 236.28 225.561 236.311 225.626 236.34C225.839 236.444 226.058 236.533 226.283 236.606C226.345 236.626 226.408 236.645 226.471 236.664L226.551 236.685L226.661 236.715L226.755 236.738L226.858 236.76L226.96 236.781L227.056 236.797C227.127 236.809 227.201 236.821 227.274 236.83L227.344 236.841L227.471 236.853L227.549 236.861L227.678 236.87H227.754L227.888 236.877H228.312L228.433 236.87L228.573 236.861L228.743 236.845L228.902 236.827C228.939 236.827 228.975 236.817 229.012 236.81C229.502 236.739 229.981 236.609 230.44 236.423L230.635 236.341C230.965 236.199 231.281 236.026 231.58 235.826C231.86 235.642 232.124 235.437 232.371 235.21C232.43 235.158 232.488 235.101 232.544 235.048C232.572 235.021 232.599 234.995 232.626 234.966C232.68 234.911 232.735 234.857 232.789 234.797C233.18 234.366 233.519 233.891 233.798 233.381C236.193 229.026 238.703 224.735 241.326 220.513L241.686 219.937L242.05 219.36C242.231 219.068 242.414 218.78 242.597 218.494L242.78 218.208C243.39 217.253 244.009 216.305 244.639 215.363L245.012 214.805C245.761 213.695 246.508 212.616 247.248 211.59L247.617 211.082C248.422 209.972 249.26 208.886 250.131 207.826L250.476 207.412C250.533 207.344 250.586 207.275 250.648 207.209C250.762 207.074 250.876 206.943 250.987 206.816C251.044 206.751 251.096 206.688 251.156 206.624L251.484 206.254L251.648 206.074C251.813 205.897 251.975 205.727 252.134 205.564C252.244 205.454 252.346 205.345 252.451 205.242C253.071 204.608 253.756 204.039 254.494 203.546L254.665 203.436C254.829 203.326 254.999 203.223 255.173 203.13C258.066 201.487 260.461 201.366 261.84 202.746C262.675 203.58 263.138 204.964 263.112 206.891C263.112 206.975 263.112 207.061 263.106 207.149V207.243C263.106 207.331 263.098 207.419 263.091 207.509C263.091 207.619 263.079 207.728 263.068 207.838C263.057 207.947 263.051 208.03 263.04 208.128C263.04 208.155 263.035 208.183 263.03 208.212C263.023 208.297 263.012 208.384 262.999 208.471C262.999 208.496 262.999 208.523 262.989 208.55C262.976 208.666 262.959 208.782 262.939 208.897C262.926 209.007 262.907 209.11 262.888 209.217L262.856 209.4C262.825 209.573 262.784 209.745 262.734 209.914C262.639 210.23 262.523 210.54 262.387 210.841C262.198 211.254 261.988 211.657 261.758 212.049C261.631 212.267 261.5 212.481 261.364 212.693C261.225 212.912 261.078 213.134 260.926 213.357C260.539 213.911 260.138 214.453 259.721 214.983L259.53 215.224C258.849 216.072 258.146 216.903 257.422 217.714L257.193 217.971C256.885 218.315 256.572 218.662 256.251 219.009L256.01 219.271C255.85 219.446 255.682 219.621 255.52 219.797C255.36 219.972 255.192 220.15 255.024 220.327L254.521 220.857L254.01 221.391L253.496 221.924C253.151 222.282 252.805 222.639 252.456 222.996C247.493 228.086 242.265 233.159 240.495 236.322C240.377 236.527 240.27 236.739 240.175 236.957C239.923 237.532 239.817 238.024 239.889 238.422C239.912 238.552 239.958 238.678 240.025 238.793C240.124 238.965 240.246 239.124 240.386 239.266C240.451 239.33 240.52 239.389 240.592 239.442C240.957 239.702 241.396 239.835 241.844 239.823H241.983L242.127 239.812L242.27 239.796L242.389 239.779C242.404 239.777 242.422 239.774 242.438 239.769L242.546 239.748L242.575 239.742L242.696 239.717L242.739 239.706L242.866 239.671C242.909 239.659 242.967 239.643 243.019 239.626C243.234 239.561 243.445 239.484 243.652 239.396C243.761 239.352 243.867 239.304 243.972 239.253C244.027 239.228 244.082 239.203 244.134 239.176L244.298 239.095C244.689 238.892 245.071 238.67 245.443 238.433L245.606 238.323C245.661 238.288 245.716 238.253 245.769 238.214L245.932 238.105L246.018 238.045L246.253 237.88C246.473 237.729 246.677 237.574 246.884 237.416L246.902 237.401L247.231 237.147C247.68 236.792 248.106 236.434 248.493 236.098L248.75 235.873L248.773 235.85L248.908 235.732C249.224 235.448 249.505 235.183 249.739 234.966L249.836 234.871C249.92 234.792 249.997 234.717 250.067 234.654L250.204 234.518L250.253 234.47L250.266 234.457L250.41 234.313L250.5 234.219L250.511 234.211L250.554 234.171L250.608 234.122L250.625 234.106L250.67 234.065L250.92 233.846L251.059 233.721C251.134 233.656 251.206 233.59 251.279 233.523L251.445 233.375C251.476 233.35 251.505 233.323 251.536 233.296L251.711 233.143L251.968 232.917L252.105 232.798C252.637 232.336 253.284 231.776 254.029 231.146L254.333 230.888L254.836 230.466L255.352 230.036C256.025 229.477 256.749 228.883 257.515 228.268L258.018 227.864C258.447 227.522 258.886 227.175 259.331 226.825C259.511 226.684 259.694 226.543 259.88 226.404C261.388 225.231 262.923 224.093 264.484 222.992L264.954 222.664C265.283 222.437 265.611 222.21 265.939 221.988L266.236 221.787C266.823 221.39 267.417 221.002 268.017 220.623L268.314 220.436L268.609 220.253C268.906 220.069 269.199 219.889 269.492 219.714L269.784 219.539L270.369 219.199L270.943 218.87L271.06 218.806L271.514 218.556C271.703 218.454 271.892 218.354 272.08 218.258L272.36 218.113L272.633 217.976C272.729 217.931 272.823 217.883 272.916 217.838C273.696 217.454 274.494 217.109 275.307 216.804L275.809 216.628C275.96 216.577 276.107 216.53 276.247 216.487L276.296 216.472C276.372 216.448 276.448 216.426 276.523 216.406L276.545 216.4C276.701 216.355 276.857 216.316 277.01 216.279H277.021C277.455 216.175 277.895 216.1 278.339 216.055C278.543 216.034 278.748 216.023 278.953 216.024H279.056C279.193 216.024 279.325 216.033 279.456 216.046C279.516 216.046 279.576 216.059 279.635 216.066H279.659C279.718 216.073 279.777 216.082 279.836 216.095C279.893 216.106 279.952 216.116 280.008 216.129H280.027C280.084 216.142 280.136 216.156 280.195 216.174C280.506 216.26 280.803 216.395 281.074 216.571C281.208 216.658 281.332 216.756 281.447 216.865L281.481 216.897C281.502 216.916 281.523 216.937 281.543 216.958L281.603 217.023C282.095 217.538 282.501 218.129 282.807 218.773L282.854 218.883C283.069 219.375 283.184 219.904 283.193 220.44C283.202 220.977 283.104 221.509 282.905 222.008C282.792 222.31 282.653 222.603 282.49 222.883C282.11 223.523 281.659 224.119 281.145 224.66L281.036 224.776C280.873 224.947 280.705 225.119 280.527 225.29C280.449 225.367 280.367 225.443 280.285 225.52L280.034 225.751L279.903 225.868C279.395 226.318 278.87 226.749 278.33 227.161C277.613 227.709 276.883 228.238 276.138 228.749C275.689 229.057 275.236 229.36 274.78 229.658C273.655 230.396 272.519 231.115 271.37 231.815C268.962 233.296 266.293 234.88 263.447 236.602L262.71 237.049C261.904 237.541 261.143 238.011 260.426 238.458L260.065 238.685L259.382 239.123C258.929 239.413 258.477 239.706 258.026 239.998L257.662 240.238C257.485 240.353 257.308 240.47 257.132 240.588L256.96 240.698L256.431 241.054L256.151 241.246L255.823 241.474L255.518 241.686C255.008 242.047 254.533 242.391 254.096 242.717L253.932 242.842C253.675 243.037 253.42 243.235 253.169 243.437C252.791 243.742 252.446 244.033 252.136 244.313L251.985 244.452C251.898 244.531 251.812 244.611 251.73 244.689C251.674 244.744 251.621 244.799 251.562 244.852L251.484 244.93C251.309 245.106 251.138 245.286 250.973 245.471L250.892 245.564C250.712 245.772 250.555 245.972 250.418 246.166L250.357 246.253C250.249 246.41 250.15 246.571 250.061 246.738C250.038 246.779 250.017 246.821 249.996 246.863L249.936 246.987L249.896 247.078L249.87 247.139L249.849 247.194L249.821 247.269C249.745 247.476 249.692 247.691 249.662 247.909L249.652 247.985L249.645 248.056V248.441C249.645 248.473 249.645 248.505 249.653 248.539L249.659 248.598C249.659 248.63 249.667 248.66 249.672 248.695C249.677 248.727 249.685 248.784 249.695 248.829V248.835C249.703 248.878 249.712 248.92 249.723 248.963C249.734 249.006 249.745 249.054 249.759 249.099C249.782 249.185 249.811 249.271 249.842 249.357C249.861 249.408 249.88 249.458 249.901 249.509C249.901 249.518 249.908 249.529 249.913 249.539L249.957 249.638L250.018 249.774C250.084 249.915 250.156 250.052 250.235 250.185L250.315 250.325L250.399 250.464C250.414 250.488 250.43 250.51 250.449 250.53L250.476 250.559L250.506 250.587L250.538 250.611C250.609 250.662 250.689 250.697 250.774 250.713C251.48 250.872 252.932 250.288 254.861 249.27C254.97 249.211 255.09 249.15 255.206 249.086L255.793 248.766L256.08 248.607C256.284 248.498 256.492 248.374 256.705 248.253L257.093 248.034C259.642 246.566 262.687 244.682 265.835 242.841C266.13 242.668 266.426 242.496 266.722 242.326L267.317 241.945C268.007 241.55 268.701 241.16 269.398 240.774C270.275 240.291 271.159 239.822 272.051 239.367L272.633 239.072C273.02 238.881 273.403 238.695 273.781 238.514C274.514 238.166 275.254 237.835 276.003 237.523L276.413 237.357L276.462 237.337C278.634 236.477 280.603 235.946 282.196 235.946C282.54 235.942 282.885 235.972 283.224 236.03H283.236C283.344 236.05 283.444 236.072 283.545 236.096H283.564C283.824 236.163 284.078 236.257 284.317 236.378C284.654 236.552 284.956 236.783 285.212 237.062C285.33 237.192 285.434 237.333 285.525 237.482C285.697 237.745 285.831 238.03 285.928 238.329C285.967 238.445 286.001 238.559 286.037 238.68C286.295 239.606 286.269 240.589 285.963 241.501Z" fill="#FF9D00"/>
<path fill-rule="evenodd" clip-rule="evenodd" d="M271.526 175.03V174.429C271.526 123.207 230.015 81.6831 178.789 81.6831C127.564 81.6831 86.0378 123.209 86.0378 174.429V174.63C86.0348 174.764 86.0348 174.897 86.0378 175.03C86.044 175.23 86.0464 175.429 86.044 175.629L86.0501 176.069L86.0538 176.227C86.0538 176.301 86.0562 176.373 86.0586 176.446C86.0623 176.563 86.0648 176.68 86.0648 176.796L86.0782 177.272L86.0978 177.832L86.1039 178.015L86.1284 178.594V178.622C86.1382 178.849 86.1504 179.074 86.1615 179.299L86.1627 179.316C86.1749 179.546 86.1872 179.778 86.2018 180.009C86.2141 180.222 86.2263 180.435 86.2422 180.648L86.2447 180.686C86.2557 180.868 86.2679 181.052 86.2814 181.234L86.2851 181.283L86.3254 181.812L86.3291 181.846C86.3365 181.949 86.3438 182.052 86.3536 182.151C86.427 183.033 86.5127 183.915 86.6106 184.795L86.6155 184.85L86.6902 185.498L86.7734 186.177L86.8346 186.639L86.8627 186.855C86.9276 187.354 86.9986 187.853 87.0744 188.349L87.0793 188.383L87.1515 188.852C87.5016 191.091 87.9348 193.316 88.4488 195.522L88.4549 195.549L88.4941 195.715L88.6055 196.186L88.674 196.104C91.3664 192.885 95.2289 191.11 99.5503 191.11C103.014 191.11 106.567 192.256 110.128 194.514C112.49 196.014 115.102 198.671 117.789 202.014C120.276 198.56 123.762 196.264 127.749 195.637C128.509 195.517 129.279 195.458 130.047 195.456C139.148 195.456 144.629 203.354 146.7 210.458C147.723 212.858 152.654 223.789 160.09 231.184C171.393 242.476 174.222 254.128 168.628 266.606H168.647C169.028 266.648 169.411 266.688 169.796 266.723C170.025 266.745 170.253 266.767 170.483 266.787L170.564 266.794L171.069 266.837L171.534 266.874C171.977 266.908 172.421 266.94 172.867 266.968L173.221 266.989L173.501 267.006L173.675 267.016L174.222 267.044L174.371 267.05L174.945 267.076L175.584 267.1L176.097 267.115L176.182 267.117C176.291 267.122 176.4 267.126 176.509 267.126L176.627 267.129C177.349 267.146 178.069 267.155 178.792 267.154H179.558L180.105 267.148C180.239 267.142 180.373 267.142 180.509 267.142H180.722L180.906 267.137C180.979 267.134 181.051 267.132 181.124 267.132H181.343L181.773 267.121L182.419 267.099L183.13 267.067C183.336 267.06 183.539 267.049 183.742 267.039L183.961 267.025L184.287 267.008L184.478 266.997L184.622 266.987L185.279 266.945L185.935 266.897L186.531 266.849L186.95 266.814L187.41 266.772C188.178 266.703 188.945 266.623 189.711 266.531L190.233 266.468C184.727 254.044 187.578 242.442 198.833 231.195C206.253 223.781 211.184 212.85 212.212 210.448C214.284 203.345 219.762 195.448 228.865 195.448C229.635 195.448 230.405 195.509 231.165 195.629C235.148 196.255 238.634 198.551 241.124 202.005C243.813 198.664 246.423 196.005 248.787 194.504C252.347 192.247 255.903 191.102 259.363 191.102C263.177 191.102 266.633 192.485 269.243 195.022C269.291 194.815 269.337 194.608 269.383 194.4L269.516 193.781C269.564 193.554 269.612 193.328 269.657 193.102C269.738 192.701 269.818 192.301 269.896 191.897C269.976 191.479 270.053 191.058 270.127 190.637L270.165 190.409C270.188 190.275 270.21 190.14 270.236 190.004C270.277 189.794 270.312 189.583 270.346 189.37L270.359 189.289L270.446 188.735L270.532 188.173V188.168C270.594 187.753 270.653 187.339 270.708 186.924L270.722 186.821L270.799 186.236L270.861 185.737L270.971 184.753L271.014 184.357L271.025 184.25C271.048 184.037 271.07 183.824 271.09 183.611V183.594C271.106 183.425 271.123 183.255 271.138 183.085C271.225 182.12 271.298 181.151 271.357 180.178C271.368 180.019 271.376 179.858 271.386 179.698V179.691L271.418 179.09L271.425 178.955C271.445 178.549 271.462 178.143 271.476 177.736V177.722L271.482 177.563C271.488 177.429 271.493 177.295 271.493 177.16L271.495 177.106C271.5 176.98 271.505 176.85 271.505 176.722L271.509 176.612C271.512 176.483 271.516 176.356 271.516 176.227L271.518 176.118C271.522 175.956 271.526 175.792 271.526 175.629V175.03ZM155.785 267.683C163.13 256.912 162.609 248.827 152.532 238.755C142.452 228.681 136.586 213.951 136.586 213.951C136.586 213.951 134.397 205.395 129.403 206.181C124.41 206.967 120.747 219.752 131.202 227.578C141.657 235.405 129.122 240.712 125.098 233.367C121.074 226.022 110.088 207.142 104.392 203.53C98.696 199.918 94.6904 201.943 96.033 209.386C96.6999 213.081 102.902 219.387 108.697 225.279C114.577 231.256 120.036 236.807 118.869 238.772C116.552 242.672 108.393 234.188 108.393 234.188C108.393 234.188 82.8436 210.938 77.2825 216.997C72.1546 222.582 80.0618 227.329 92.2464 234.646C93.2818 235.268 94.349 235.909 95.4418 236.57C109.383 245.01 110.467 247.236 108.488 250.429C107.757 251.609 103.091 248.807 97.351 245.362C87.5664 239.486 74.6647 231.741 72.8424 238.674C71.2661 244.674 80.7582 248.351 89.3667 251.686C96.5384 254.464 103.098 257.005 102.133 260.453C101.133 264.029 95.7123 261.047 89.7877 257.787C83.1361 254.126 75.8481 250.117 73.4629 254.641C68.9555 263.196 104.561 273.267 104.854 273.342C116.359 276.325 145.574 282.648 155.785 267.683ZM203.104 267.683C195.759 256.912 196.28 248.827 206.359 238.755C216.437 228.681 222.303 213.951 222.303 213.951C222.303 213.951 224.492 205.395 229.486 206.181C234.479 206.967 238.142 219.752 227.688 227.578C217.232 235.405 229.767 240.712 233.791 233.367C237.816 226.022 248.795 207.142 254.491 203.53C260.187 199.918 264.195 201.943 262.851 209.386C262.185 213.081 255.982 219.387 250.187 225.28C244.307 231.257 238.848 236.807 240.014 238.772C242.331 242.672 250.496 234.184 250.496 234.184C250.496 234.184 276.044 210.934 281.608 216.993C286.734 222.577 278.827 227.325 266.641 234.642C265.575 235.283 264.511 235.924 263.447 236.566C249.506 245.006 248.422 247.232 250.4 250.424C251.132 251.605 255.798 248.802 261.537 245.357C271.323 239.483 284.224 231.736 286.047 238.67C287.624 244.671 278.131 248.347 269.522 251.682C262.351 254.46 255.791 257.001 256.755 260.45C257.754 264.024 263.173 261.042 269.096 257.782C275.748 254.121 283.037 250.109 285.421 254.638C289.93 263.197 254.318 273.258 254.031 273.332C242.527 276.325 213.311 282.648 203.104 267.683Z" fill="#FFD21E"/>
<path fill-rule="evenodd" clip-rule="evenodd" d="M208.91 149.185C210.357 149.697 211.433 151.254 212.456 152.736C213.839 154.738 215.126 156.602 217.101 155.552C218.697 154.703 220.104 153.538 221.236 152.129C222.368 150.72 223.203 149.096 223.689 147.355C224.175 145.614 224.302 143.793 224.063 142.001C223.825 140.21 223.224 138.485 222.299 136.932C221.288 135.238 219.914 133.788 218.275 132.688C216.637 131.588 214.775 130.865 212.824 130.571C209.882 130.128 206.876 130.681 204.284 132.142C201.692 133.603 199.663 135.888 198.519 138.635C197.76 140.456 197.414 142.423 197.506 144.394C197.599 146.365 198.127 148.291 199.052 150.033C199.968 151.755 201.999 150.943 204.143 150.085C205.824 149.413 207.575 148.713 208.91 149.185ZM146.035 149.185C144.589 149.697 143.513 151.255 142.49 152.736C141.107 154.739 139.818 156.602 137.844 155.552C134.917 153.998 132.673 151.41 131.548 148.292C130.424 145.175 130.5 141.75 131.762 138.686C133.024 135.621 135.381 133.136 138.375 131.713C141.368 130.291 144.784 130.034 147.957 130.992C150.484 131.753 152.728 133.246 154.407 135.282C156.086 137.318 157.124 139.806 157.389 142.432C157.653 145.058 157.133 147.703 155.895 150.033C154.978 151.755 152.946 150.943 150.802 150.086C149.121 149.413 147.372 148.713 146.035 149.185ZM199.183 206.401C209.149 198.55 212.809 185.732 212.809 177.835C212.809 171.594 208.61 173.558 201.888 176.887L201.508 177.074C195.338 180.13 187.123 184.199 178.106 184.199C169.088 184.199 160.873 180.13 154.704 177.073C147.764 173.635 143.41 171.479 143.41 177.837C143.41 185.983 147.305 199.358 157.994 207.128C159.405 204.265 161.391 201.724 163.828 199.663C166.266 197.603 169.102 196.067 172.16 195.152C173.227 194.833 174.326 196.67 175.45 198.551C176.536 200.365 177.646 202.22 178.774 202.22C179.977 202.22 181.158 200.392 182.313 198.608C183.518 196.741 184.694 194.924 185.831 195.287C191.553 197.124 196.339 201.108 199.183 206.401Z" fill="#32343D"/>
<path d="M199.181 206.4C193.99 210.49 187.092 213.233 178.107 213.233C169.667 213.233 163.065 210.812 157.994 207.127C159.405 204.264 161.391 201.723 163.828 199.662C166.266 197.601 169.102 196.065 172.16 195.15C174.255 194.525 176.476 202.219 178.774 202.219C181.234 202.219 183.605 194.575 185.831 195.286C191.551 197.124 196.336 201.108 199.181 206.4Z" fill="#FF323D"/>
<path fill-rule="evenodd" clip-rule="evenodd" d="M122.205 160.289C121.019 161.083 119.656 161.571 118.236 161.711C116.816 161.851 115.384 161.638 114.066 161.091C113.013 160.656 112.055 160.018 111.249 159.212C110.443 158.406 109.805 157.449 109.37 156.395C108.824 155.077 108.612 153.644 108.752 152.225C108.892 150.805 109.381 149.442 110.174 148.256C110.887 147.191 111.828 146.296 112.928 145.638C114.028 144.979 115.26 144.573 116.536 144.448C117.812 144.322 119.1 144.482 120.307 144.914C121.514 145.346 122.61 146.041 123.517 146.947C124.423 147.854 125.117 148.95 125.549 150.157C125.981 151.364 126.14 152.652 126.015 153.928C125.889 155.204 125.483 156.436 124.824 157.536C124.165 158.636 123.271 159.576 122.205 160.289ZM246.318 160.289C245.132 161.083 243.769 161.571 242.349 161.711C240.929 161.851 239.496 161.638 238.179 161.091C237.125 160.656 236.168 160.018 235.362 159.212C234.556 158.406 233.917 157.448 233.483 156.395C232.938 155.077 232.726 153.645 232.866 152.225C233 150.877 233.448 149.58 234.172 148.435C234.897 147.291 235.879 146.332 237.04 145.635C238.699 144.64 240.643 144.228 242.563 144.466C244.482 144.703 246.267 145.575 247.634 146.944C248.848 148.157 249.675 149.702 250.01 151.385C250.344 153.068 250.172 154.813 249.514 156.397C248.857 157.982 247.745 159.336 246.318 160.289Z" fill="#FFAD03"/>
</svg>
